<?xml version="1.0" encoding="UTF-8" standalone="no"?><!DOCTYPE svg PUBLIC "-//W3C//DTD SVG 1.1//EN" "http://www.w3.org/Graphics/SVG/1.1/DTD/svg11.dtd"><svg width="100%" height="100%" viewBox="0 0 528 512" version="1.1" xmlns="http://www.w3.org/2000/svg" xmlns:xlink="http://www.w3.org/1999/xlink" xml:space="preserve" xmlns:serif="http://www.serif.com/" style="fill-rule:evenodd;clip-rule:evenodd;stroke-linejoin:round;stroke-miterlimit:2;"><g><path d="M521.652,194.74c-0,0.774 -0.005,1.548 -0.021,2.317c-5.35,4.766 -12.271,7.402 -19.436,7.402c-16.028,0 -29.217,-13.189 -29.217,-29.216c0,-16.028 13.189,-29.217 29.217,-29.217c3.711,0 7.389,0.708 10.835,2.084c5.72,14.88 8.643,30.688 8.622,46.63Z" style="fill:#7f8a98;fill-rule:nonzero;"/><path d="M502.165,204.48c7.18,0.011 14.116,-2.634 19.466,-7.423c-1.236,70.676 -58.916,127.592 -129.889,127.592c-49.039,0.012 -94.072,-27.746 -116.096,-71.562l0.09,-0.042c0.991,0.102 1.987,0.153 2.984,0.153c16.034,-0 29.229,-13.195 29.229,-29.229c-0,-16.032 -13.191,-29.226 -29.223,-29.229c-6.005,-0.011 -11.869,1.838 -16.782,5.291c-0.071,-1.755 -0.106,-3.519 -0.106,-5.291c-0,-67.548 51.556,-123.054 117.459,-129.322l0.027,0.282c-0.381,1.852 -0.574,3.739 -0.574,5.631c0,15.322 12.609,27.93 27.931,27.93c15.044,0 27.524,-12.154 27.921,-27.193c36,12.626 64.696,40.449 78.428,76.042c-3.454,-1.382 -7.14,-2.092 -10.86,-2.092c-16.036,-0 -29.231,13.195 -29.231,29.231c-0,16.034 13.192,29.229 29.226,29.231Z" style="fill:#dde2f2;fill-rule:nonzero;"/><path d="M434.602,72.068c-0.413,15.025 -12.886,27.161 -27.918,27.161c-15.32,-0 -27.927,-12.608 -27.927,-27.928c-0,-1.882 0.19,-3.758 0.567,-5.601l-0.027,-0.282c4.094,-0.387 8.242,-0.583 12.445,-0.588c14.592,-0.015 29.082,2.432 42.86,7.238Z" style="fill:#7f8a98;fill-rule:nonzero;"/><path d="M278.726,194.74c0.001,-0 0.003,-0 0.004,-0c16.035,-0 29.23,13.194 29.23,29.229c-0,16.035 -13.195,29.23 -29.23,29.23c-1,-0 -2,-0.051 -2.994,-0.154l-0.09,0.042c-8.307,-16.502 -12.979,-34.595 -13.702,-53.056c4.913,-3.453 10.777,-5.302 16.782,-5.291Z" style="fill:#c3cbdd;fill-rule:nonzero;"/><circle cx="448.903" cy="277.229" r="12.991" style="fill:#c3cbdd;"/><path d="M401.488,173.307c10.33,0.003 18.829,8.504 18.829,18.834c0,10.332 -8.502,18.835 -18.834,18.835c-10.332,-0 -18.834,-8.503 -18.834,-18.835c-0,-0 -0,-0.001 -0,-0.002c-0,-10.331 8.501,-18.832 18.832,-18.832c0.002,0 0.005,0 0.007,0Z" style="fill:#848b9b;fill-rule:nonzero;"/><circle cx="337.832" cy="133.035" r="12.991" style="fill:#c3cbdd;"/><circle cx="352.123" cy="272.685" r="6.495" style="fill:#6d7486;"/><path d="M277.745,194.74c0,-61.885 43.277,-113.655 101.212,-126.721c0.092,-0.782 0.212,-1.558 0.367,-2.319l-0.027,-0.282c-65.903,6.268 -117.459,61.774 -117.459,129.322c-0,1.771 0.035,3.534 0.106,5.291c4.64,-3.26 10.133,-5.093 15.801,-5.272l0,-0.019Z" style="fill:#848b9b;fill-rule:nonzero;"/><path d="M291.553,253.087l-1.135,-2.328l-11.692,2.439c-0.999,-0.001 -1.997,-0.052 -2.99,-0.154l-0.09,0.042c22.024,43.816 67.057,71.574 116.096,71.563c2.658,0 5.295,-0.089 7.914,-0.247c-46.101,-2.838 -87.352,-30.05 -108.103,-71.315Z" style="fill:#848b9b;fill-rule:nonzero;"/><path d="M277.851,200.031l-0.106,-5.276c-5.668,0.181 -11.161,2.015 -15.801,5.276c0.723,18.461 5.395,36.554 13.702,53.056l0.09,-0.042c0.993,0.102 1.991,0.153 2.99,0.154c4.024,0.004 8.005,-0.827 11.692,-2.439c-7.599,-15.877 -11.875,-33.14 -12.567,-50.729Z" style="fill:#5f6875;fill-rule:nonzero;"/><clipPath id="_clip1"><rect id="cloud-computing.svg" x="0" y="0" width="512" height="512"/></clipPath><g clip-path="url(#_clip1)"><g id="_x31_2_cloud"><path d="M443.875,272.982c4.238,-59.343 -50.4,-105.087 -107.758,-91.164c-11.628,-52.393 -58.363,-91.574 -114.257,-91.574c-66.241,0 -119.656,55.044 -116.937,121.884c-0.036,0 -0.071,-0.002 -0.107,-0.002c-57.889,0 -104.816,46.927 -104.816,104.815c0,56.526 44.748,102.593 100.751,104.729l0,0.086l336.715,0c41.164,0 74.534,-33.37 74.534,-74.534c0,-39.002 -29.964,-70.988 -68.125,-74.24Z" style="fill:#d8ecfe;fill-rule:nonzero;"/><g><g><path d="M443.875,272.982c4.238,-59.344 -50.4,-105.087 -107.758,-91.164c-11.628,-52.393 -58.363,-91.574 -114.257,-91.574c-18.496,0 -35.99,4.295 -51.543,11.936c3.9,-0.393 7.855,-0.598 11.858,-0.598c55.894,0 102.629,39.181 114.257,91.574c57.358,-13.924 111.996,31.82 107.758,91.164c38.161,3.253 68.125,35.238 68.125,74.241c0,26.65 -13.997,50.019 -35.03,63.195l0.182,0c41.164,0 74.534,-33.37 74.534,-74.534c-0.001,-39.002 -29.965,-70.988 -68.126,-74.24Z" style="fill:#c4e2ff;fill-rule:nonzero;"/></g></g></g></g></g></svg>