<svg id="fewsunny" viewBox="0 0 540 512" version="1.1" xmlns="http://www.w3.org/2000/svg" xmlns:xlink="http://www.w3.org/1999/xlink" xml:space="preserve" xmlns:serif="http://www.serif.com/" style="fill-rule:evenodd;clip-rule:evenodd;stroke-linejoin:round;stroke-miterlimit:2;"><g><path d="M537.276,194.269l-30.335,-26.758l29.263,-27.915c1.075,-1.026 1.517,-2.543 1.162,-3.982c-0.355,-1.438 -1.456,-2.578 -2.886,-2.991l-38.946,-11.24l14.394,-37.694c0.529,-1.385 0.274,-2.945 -0.667,-4.093c-0.942,-1.147 -2.428,-1.708 -3.898,-1.471l-40.031,6.453l-3.256,-40.189c-0.119,-1.477 -1.022,-2.778 -2.367,-3.413c-1.346,-0.635 -2.931,-0.508 -4.157,0.333l-33.38,22.898l-20.276,-34.918c-0.745,-1.283 -2.122,-2.073 -3.612,-2.073c-1.49,0 -2.865,0.79 -3.61,2.073l-23.276,40.083l-40.261,-23.237c-1.289,-0.744 -2.878,-0.747 -4.17,-0.01c-1.292,0.737 -2.089,2.104 -2.093,3.585l-0.098,40.32l-40.413,-3.331c-1.482,-0.122 -2.922,0.552 -3.77,1.769c-0.849,1.216 -0.981,2.792 -0.345,4.131l17.304,36.464l-37.947,14.224c-1.394,0.523 -2.401,1.745 -2.644,3.207c-0.243,1.461 0.318,2.94 1.471,3.879l31.36,25.562l-28.144,29.029c-1.034,1.066 -1.418,2.599 -1.006,4.023c0.412,1.423 1.556,2.52 3.001,2.877l39.356,9.721l-12.902,38.223c-0.475,1.404 -0.159,2.953 0.827,4.063c0.986,1.111 2.494,1.614 3.953,1.32l39.746,-8l4.83,40.033c0.177,1.471 1.131,2.735 2.5,3.318c1.37,0.583 2.948,0.394 4.14,-0.494l32.455,-24.175l21.632,32.993c0.765,1.206 2.098,1.934 3.526,1.934c0.055,-0 0.109,-0.001 0.164,-0.004c1.488,-0.057 2.833,-0.9 3.527,-2.211l18.891,-34.564l34.251,21.586c1.259,0.794 2.845,0.859 4.166,0.172c1.319,-0.687 2.171,-2.022 2.232,-3.501l1.679,-40.286l40.252,4.896c1.476,0.18 2.941,-0.438 3.837,-1.621c0.897,-1.184 1.089,-2.752 0.507,-4.115l-15.861,-37.108l38.475,-12.741c1.413,-0.468 2.468,-1.65 2.768,-3.101c0.299,-1.45 -0.204,-2.95 -1.318,-3.933Z" style="fill:#ffa600;fill-rule:nonzero;"/><ellipse cx="396.878" cy="168.283" rx="85.889" ry="85.822" style="fill:#ffdb2d;"/><path d="M396.88,82.461c-2.151,0 -4.282,0.082 -6.393,0.237c44.448,3.269 79.495,40.336 79.495,85.586c-0,45.249 -35.047,82.316 -79.495,85.585c2.111,0.155 4.243,0.237 6.393,0.237c47.435,0 85.889,-38.424 85.889,-85.822c-0,-47.399 -38.454,-85.823 -85.889,-85.823Z" style="fill:#ffca00;fill-rule:nonzero;"/><clipPath id="_clip1"><rect id="cloud-computing.svg" x="0" y="0" width="512" height="512"/></clipPath><g clip-path="url(#_clip1)"><g id="_x31_2_cloud"><path d="M443.875,272.982c4.238,-59.343 -50.4,-105.087 -107.758,-91.164c-11.628,-52.393 -58.363,-91.574 -114.257,-91.574c-66.241,0 -119.656,55.044 -116.937,121.884c-0.036,0 -0.071,-0.002 -0.107,-0.002c-57.889,0 -104.816,46.927 -104.816,104.815c0,56.526 44.748,102.593 100.751,104.729l0,0.086l336.715,0c41.164,0 74.534,-33.37 74.534,-74.534c-0,-39.002 -29.964,-70.988 -68.125,-74.24Z" style="fill:#d8ecfe;fill-rule:nonzero;"/><g><g><path d="M443.875,272.982c4.238,-59.344 -50.4,-105.087 -107.758,-91.164c-11.628,-52.393 -58.363,-91.574 -114.257,-91.574c-18.496,0 -35.99,4.295 -51.543,11.936c3.9,-0.393 7.855,-0.598 11.858,-0.598c55.894,0 102.629,39.181 114.257,91.574c57.358,-13.924 111.996,31.82 107.758,91.164c38.161,3.253 68.125,35.238 68.125,74.241c0,26.65 -13.997,50.019 -35.03,63.195l0.182,0c41.164,0 74.534,-33.37 74.534,-74.534c-0.001,-39.002 -29.965,-70.988 -68.126,-74.24Z" style="fill:#c4e2ff;fill-rule:nonzero;"/></g></g></g></g></g></svg>